<svg version="1.0" xmlns="http://www.w3.org/2000/svg" viewBox="280 200 650 650" preserveAspectRatio="xMidYMid meet">
    <g fill="">
    <path d="M531.70 831.55 c-0.10 -0.10 -0.20 -17.75 -0.20 -39.15 l0 -38.90 8.25 0 c7.10 0 8.25 0.10 8.25 0.75 0 0.65 0.20 0.70 1.15 0.20 1.95 -1.10 11.95 -1.20 15.65 -0.20 3.70 1 6.30 3.40 7.20 6.75 0.70 2.55 0.75 44.55 0.05 46.90 -0.80 2.75 -2.40 4.85 -4.65 6.10 -2 1.15 -2.65 1.25 -9.40 1.25 -4 0 -7.75 -0.20 -8.35 -0.40 l-1.15 -0.40 -0.10 8.60 -0.15 8.65 -8.15 0.05 c-4.50 0 -8.30 -0.10 -8.40 -0.20z m22.95 -30.20 c0.80 -0.55 0.90 -2.05 0.90 -16.75 0 -8.90 -0.15 -16.35 -0.30 -16.60 -0.45 -0.70 -5.45 -0.60 -6.15 0.10 -0.65 0.65 -0.90 31.70 -0.20 32.70 0.75 1.15 4.45 1.55 5.75 0.55z"/>
    <path d="M442 814.70 c-2.90 -1 -5.25 -3.30 -6.35 -6.15 -0.80 -2.10 -0.90 -4.85 -0.90 -32.05 0 -33.20 0 -33.05 3.25 -36.40 2.75 -2.75 4.45 -3.15 15.55 -3.45 17.70 -0.50 22.50 1.05 24.50 7.95 0.70 2.45 0.65 60.80 -0.05 63.40 -0.85 3.20 -3.45 5.70 -6.90 6.70 -4.10 1.15 -25.75 1.15 -29.10 0z m18.75 -13.40 c0.95 -0.70 1 -1.65 1 -25.25 0 -21.30 -0.10 -24.65 -0.75 -25.05 -0.90 -0.60 -7.50 -0.65 -8.40 -0.05 -0.50 0.30 -0.65 5.30 -0.75 24.20 -0.05 13.10 0 24.30 0.15 24.95 0.25 1.05 0.65 1.20 3.75 1.45 1.95 0.15 3.65 0.30 3.80 0.35 0.15 0.05 0.70 -0.20 1.20 -0.60z"/>
    <path d="M492.60 784.65 l0.15 -30.90 8.15 -0.15 8.10 -0.10 0 1.20 0 1.25 1.65 -0.95 c0.95 -0.55 3.50 -1.25 5.75 -1.60 5.75 -0.80 5.65 -0.95 5.50 7.80 l-0.15 7.05 -3 0.05 c-4.90 0.05 -6.55 0.55 -7.85 2.35 -1.15 1.60 -1.15 1.70 -1.40 23.10 l-0.25 21.50 -8.40 0.15 -8.35 0.10 0.10 -30.85z"/>
    <path d="M585.60 773.90 l0.15 -41.60 8.25 0 8.25 0 0.15 11.15 c0.10 10.35 0.20 11.10 1 10.80 0.45 -0.20 3.40 -0.50 6.50 -0.65 8.85 -0.35 13.05 1.15 15.45 5.55 1 1.75 1.05 2.85 1.25 38 l0.15 18.35 -8.35 0 -8.40 0 -0.05 -1.35 c0 -0.80 -0.10 -11.35 -0.20 -23.55 -0.10 -12.15 -0.35 -22.35 -0.50 -22.60 -0.50 -0.80 -5.55 -0.60 -6.20 0.20 -0.45 0.50 -0.60 7.10 -0.70 23.90 l-0.10 23.15 -8.40 0.15 -8.35 0.10 0.10 -41.60z"/>
    <path d="M641.65 784.65 l0.10 -30.90 8.25 -0.15 8.25 -0.10 0 31 0 31 -8.35 0 -8.40 0 0.15 -30.85z"/>
    <path d="M678.65 814.60 c-2.35 -0.95 -4.45 -2.75 -5.40 -4.60 -1.45 -2.80 -1.80 -9.10 -1.65 -28.25 0.15 -13.10 0.40 -19.60 0.85 -20.85 0.80 -2.50 2.75 -4.70 5.25 -6.05 1.90 -1 2.90 -1.10 13 -1.25 13.25 -0.25 16.20 0.30 19 3.40 2.35 2.60 2.80 4.60 2.80 12.65 l0 6.85 -8 0 -8 0 0 -3.35 c0 -5.60 -0.05 -5.65 -4 -5.65 -2.65 0 -3.45 0.20 -3.70 0.80 -0.45 1.15 -0.35 31.85 0.10 32.55 0.40 0.60 6.35 1.05 6.90 0.50 0.15 -0.15 0.45 -2.20 0.55 -4.55 l0.30 -4.30 7.90 0 7.95 0 0 7.65 c0 7.50 -0.05 7.65 -1.50 10.15 -1.10 1.95 -2.05 2.90 -3.85 3.75 -2.30 1.15 -2.90 1.20 -14.40 1.30 -10.45 0.10 -12.25 0 -14.10 -0.75z"/>
    <path d="M732.40 814.70 c-3.30 -1 -5.60 -3.35 -6.60 -6.65 -0.70 -2.30 -0.80 -5.90 -0.80 -23.55 0 -23.40 0.20 -24.90 3.25 -27.80 2.80 -2.60 6.05 -3.20 17.80 -3.20 14 0 16.55 0.75 19.20 5.60 1.30 2.35 1.45 3.20 1.55 7.90 0.05 2.90 0.25 8.20 0.45 11.85 0.20 3.60 0.15 7.60 0 8.85 l-0.35 2.30 -12.70 0 -12.70 0 0 5.40 c0 2.95 0.20 5.65 0.45 6.05 0.30 0.45 1.60 0.80 3.40 0.95 4.05 0.25 4.80 -0.40 5.15 -4.50 l0.25 -3.15 7 -0.15 c10.05 -0.20 9.30 -0.70 8.95 6.05 -0.40 7.15 -0.85 8.95 -3 11.30 -2.70 3.05 -5.40 3.55 -18.25 3.50 -7.80 0 -11.35 -0.20 -13.05 -0.75z m18.10 -41.70 c0 -6.40 -0.10 -6.50 -4.95 -6.50 -3.85 0 -4.05 0.40 -4.05 6.95 l0 5.05 4.50 0 4.50 0 0 -5.50z"/>
    <path d="M641.40 740.15 c-0.15 -3.80 -0.15 -7.15 -0.05 -7.50 0.20 -0.50 2.30 -0.65 8.65 -0.65 l8.35 0 0.25 4.90 c0.15 2.65 0.15 6.05 0.05 7.50 l-0.30 2.60 -8.35 0 -8.35 0 -0.25 -6.85z"/>
    <path d="M594.50 646.10 c-0.95 -0.50 -11.85 -6.85 -24.25 -14.10 -12.35 -7.25 -27 -15.80 -32.50 -19 -9.45 -5.50 -10 -5.90 -10.15 -7.40 -0.10 -0.95 0.25 -2.30 0.80 -3.25 0.55 -0.85 1.70 -2.95 2.60 -4.60 1.55 -2.90 3.05 -5.60 6 -11 0.75 -1.35 2.15 -3.95 3.15 -5.75 2.10 -3.90 22.90 -42.10 23.15 -42.55 0.10 -0.20 -0.10 -0.60 -0.50 -0.90 -0.65 -0.55 -0.90 -0.05 -11.20 18.95 -0.70 1.25 -1.60 2.95 -2.10 3.75 -0.45 0.85 -1.95 3.55 -3.25 6 -2.40 4.45 -3.25 6.10 -6.55 12 -0.90 1.65 -2.50 4.60 -3.55 6.50 -11.30 20.95 -10.25 19.25 -12.10 19.25 -1.10 0 -2.95 -0.75 -5.25 -2.05 -1.95 -1.15 -4.20 -2.45 -5.05 -2.95 -0.80 -0.50 -5.90 -3.45 -11.30 -6.55 -5.40 -3.15 -16.60 -9.65 -24.90 -14.45 l-15 -8.75 -0.05 -2 c0 -1.90 1.15 -4.55 11 -25.50 1.45 -3 3.15 -6.75 3.85 -8.25 0.70 -1.50 2.30 -4.90 3.50 -7.50 1.25 -2.60 4.55 -9.70 7.40 -15.75 2.80 -6.05 6.40 -13.65 7.95 -16.95 1.55 -3.25 2.80 -6 2.80 -6.10 0 -0.05 1.80 -3.90 4 -8.50 2.25 -4.65 3.95 -8.70 3.90 -9.10 -0.45 -2.20 -1 -1.20 -14.35 27.40 -1.25 2.60 -3.30 7 -4.55 9.75 -1.30 2.75 -3.05 6.45 -3.85 8.25 -0.85 1.80 -4.15 8.90 -7.40 15.75 -3.20 6.90 -6.50 13.85 -7.25 15.50 -3.40 7.40 -7.55 16.15 -8.35 17.75 -1.65 3.25 -2.30 3.05 -18.70 -6.55 -8.10 -4.75 -17 -9.95 -19.85 -11.60 l-5.10 -2.95 0 -89.85 c0 -49.45 -0.15 -91.30 -0.30 -93 l-0.35 -3.05 1.70 0 c1.05 0 2.05 0.35 2.45 0.90 0.40 0.45 5.80 7.05 12 14.60 6.15 7.55 11.35 13.85 11.50 14 0.15 0.15 2.15 2.60 4.50 5.50 2.30 2.90 4.35 5.35 4.50 5.50 0.15 0.15 2.20 2.60 4.50 5.50 2.35 2.90 4.35 5.35 4.50 5.50 0.15 0.15 1.15 1.40 2.30 2.75 8.10 9.95 19.05 23.35 20.45 25 1.75 2.10 6.25 7.65 8.95 10.95 0.85 1.05 1.80 2.15 2.05 2.50 0.30 0.30 2 2.35 3.75 4.55 5.20 6.35 5.30 6.50 5.70 5.50 0.20 -0.55 -0.40 -1.70 -1.80 -3.45 -1.20 -1.40 -2.25 -2.65 -2.40 -2.80 -0.15 -0.15 -2.20 -2.60 -4.50 -5.45 -6.70 -8.25 -12 -14.70 -12.90 -15.80 -0.45 -0.55 -3.90 -4.70 -7.60 -9.25 -3.70 -4.55 -6.85 -8.35 -7 -8.50 -0.15 -0.15 -2.20 -2.60 -4.50 -5.50 -2.35 -2.90 -4.35 -5.35 -4.50 -5.50 -0.15 -0.15 -3.30 -3.95 -7 -8.50 -3.70 -4.55 -8.45 -10.30 -10.50 -12.80 -6.50 -7.85 -7.60 -9.20 -10.20 -12.40 -7.20 -8.90 -11.05 -13.60 -11.30 -13.80 -0.15 -0.15 -1.10 -1.25 -2.10 -2.50 l-1.80 -2.25 -0.20 -11.35 c-0.05 -6.20 -0.05 -11.40 0.10 -11.50 0.15 -0.15 1.85 -1.15 3.75 -2.25 3.60 -2.05 60 -35 73.50 -42.90 7.20 -4.20 8.55 -5 12.50 -7.25 3.20 -1.80 34.45 -20.15 37.70 -22.10 1.70 -1.05 3.20 -1.90 3.25 -1.90 0.10 0 3.05 -1.70 6.55 -3.75 4.85 -2.80 6.90 -3.75 8.30 -3.75 1.80 0 1.90 0.15 6.50 6.85 4.35 6.45 5.40 8 9.60 14.05 0.90 1.30 3.55 5.10 5.80 8.50 2.30 3.35 4.35 6.10 4.60 6.10 1.05 0 0.25 -1.90 -2.70 -6.15 -6 -8.70 -8.70 -12.60 -12.10 -17.60 -1.90 -2.75 -4.40 -6.40 -5.60 -8.05 -1.75 -2.50 -2.15 -3.50 -2.15 -5.30 0 -1.90 0.15 -2.25 1.40 -2.75 0.75 -0.35 2.30 -1.15 3.40 -1.85 3.05 -1.80 13.70 -8.05 19.50 -11.40 4.90 -2.80 5.15 -2.90 8.70 -2.90 3.45 0 3.85 0.15 8.20 2.60 6.95 3.95 7.30 4.20 7.30 6.15 0 1.60 -0.70 3.40 -4.90 12.25 -14.70 31.25 -15.70 33.60 -15.15 34.15 0.30 0.30 0.65 0.45 0.75 0.30 0.20 -0.20 3.60 -7.30 8.25 -17.20 1.15 -2.45 4.50 -9.65 7.45 -16 l5.40 -11.50 2.20 -0.15 c2.05 -0.10 3 0.30 10.50 4.70 4.55 2.70 10.85 6.35 14 8.20 3.15 1.85 13.20 7.70 22.25 13 9.10 5.30 18.40 10.75 20.75 12.15 2.35 1.35 5.05 2.90 6 3.45 0.95 0.55 2.95 1.70 4.40 2.55 4.25 2.55 4.50 1.90 -9.30 27.25 -6.60 12 -12.90 23.65 -14.10 25.85 -1.15 2.20 -2.30 4.25 -2.50 4.50 -0.20 0.30 -1.50 2.70 -2.95 5.35 -1.40 2.70 -3.10 5.85 -3.75 7 -2.10 3.85 -4.15 7.60 -6.05 11.15 -1.05 1.95 -2.30 4.20 -2.80 5.05 -0.80 1.30 -0.85 1.65 -0.25 2.15 0.55 0.45 3.70 -4.95 17.05 -29.55 9.05 -16.60 16.90 -31.05 17.50 -32.15 2.05 -3.70 4.10 -7.50 6.05 -11 1.05 -1.90 2.75 -5.05 3.75 -7 1.75 -3.25 2 -3.50 3.65 -3.65 1.95 -0.15 -0.85 -1.70 41.30 22.90 10.05 5.85 19.30 11.25 20.55 11.95 1.25 0.70 5.60 3.20 9.60 5.55 l7.30 4.25 0.05 59.55 0 59.55 -15.75 28.90 c-8.65 15.90 -15.75 29.20 -15.75 29.50 0 1.05 0.65 1.25 1.25 0.35 0.35 -0.45 1.45 -2.40 2.50 -4.35 2 -3.75 4.20 -7.75 6 -11 0.60 -1.10 2.60 -4.80 4.50 -8.25 1.85 -3.45 4.05 -7.45 4.80 -8.85 0.80 -1.45 2.10 -3.85 2.90 -5.25 0.75 -1.45 2.10 -3.90 2.90 -5.40 0.85 -1.50 2.05 -3.70 2.65 -4.85 1 -1.90 1.30 -2.15 2.85 -2.15 l1.80 0 -0.35 2.65 c-0.15 1.40 -0.30 21 -0.30 43.45 l0 40.85 -2.75 1.55 c-2 1.15 -3.25 1.50 -4.60 1.40 -1.75 -0.15 -2 -0.45 -7.45 -8.40 -3.10 -4.55 -5.80 -8.45 -6.05 -8.75 -0.25 -0.25 -2.45 -3.50 -4.90 -7.15 -3.40 -5.10 -4.55 -6.45 -4.90 -5.85 -0.30 0.55 0.40 2 2.60 5.15 1.65 2.40 5.40 7.95 8.35 12.35 2.95 4.40 6.15 9 7.05 10.20 1.20 1.55 1.65 2.75 1.65 4.05 l0 1.90 -7.60 4.35 c-4.20 2.40 -8.30 4.80 -9.15 5.25 -14.95 8.60 -38.05 22.30 -38.15 22.60 -0.10 0.20 -0.95 0.40 -1.90 0.40 -3.60 0 -3.15 -1 14.70 -33.70 9 -16.50 16.50 -30.35 16.70 -30.80 0.30 -0.80 -0.35 -2.50 -0.75 -2 -0.10 0.15 -2.60 4.75 -5.60 10.25 -5.75 10.65 -5.95 11.05 -10.60 19.50 -1.65 3.05 -3.85 7.10 -4.90 9 -1.85 3.40 -2.95 5.50 -6.10 11.25 -0.85 1.50 -2.35 4.35 -3.40 6.25 -1.05 1.95 -2.25 4.20 -2.75 5 -0.50 0.85 -1.85 3.30 -3 5.50 -1.15 2.20 -2.50 4.35 -2.95 4.85 -0.65 0.65 -11.45 7.15 -19.55 11.80 -0.95 0.50 -3.65 2.10 -6 3.45 -41.80 24.45 -38.40 22.95 -41.65 18.80 -1 -1.35 -2.30 -3 -2.95 -3.75 -0.65 -0.70 -1.50 -1.75 -1.90 -2.25 -2.15 -2.60 -14.35 -17.55 -15.10 -18.40 -0.45 -0.55 -2.55 -3.15 -4.75 -5.75 -2.15 -2.60 -5.80 -7.10 -8.15 -10 -2.35 -2.90 -4.35 -5.35 -4.50 -5.50 -0.15 -0.15 -2.20 -2.60 -4.50 -5.50 -2.35 -2.90 -4.35 -5.35 -4.50 -5.50 -0.15 -0.15 -3.30 -3.95 -7 -8.50 -3.70 -4.55 -6.95 -8.50 -7.25 -8.80 -0.25 -0.30 -2.30 -2.80 -4.50 -5.60 -3.65 -4.60 -5 -5.75 -5 -4.20 0 0.45 7.25 9.60 12.70 16.05 0.45 0.55 1.15 1.40 1.55 1.90 2 2.40 7.35 9 8.10 9.90 0.45 0.55 2.55 3.15 4.75 5.75 2.15 2.60 6.95 8.45 10.65 13 3.70 4.55 6.85 8.35 7 8.50 0.15 0.15 2.15 2.60 4.50 5.50 2.30 2.90 4.35 5.35 4.50 5.50 0.15 0.15 2.20 2.60 4.50 5.50 2.35 2.90 4.35 5.35 4.50 5.50 0.15 0.15 1.80 2.10 3.65 4.35 2.85 3.55 3.35 4.40 3.35 6.10 l0 1.95 -16.85 9.90 -16.90 9.90 -4.25 0.20 c-3.45 0.10 -4.60 0 -6 -0.80z m-32 -118.10 c0 -0.15 -0.50 -0.80 -1.15 -1.50 -0.60 -0.70 -4.15 -4.95 -7.85 -9.50 -3.70 -4.55 -6.85 -8.35 -7 -8.50 -0.15 -0.15 -2.20 -2.60 -4.50 -5.50 -2.35 -2.90 -4.35 -5.35 -4.50 -5.50 -0.15 -0.15 -3.30 -3.95 -7 -8.50 -6.05 -7.40 -11.50 -14 -16.20 -19.70 -1.20 -1.45 -1.70 -1.75 -1.90 -1.20 -0.30 0.65 1.25 2.95 4.25 6.40 0.60 0.70 3 3.60 5.35 6.50 2.35 2.90 4.35 5.35 4.50 5.50 0.15 0.15 3.30 3.95 7 8.50 3.70 4.55 6.85 8.35 7 8.50 0.15 0.15 2.15 2.60 4.50 5.50 2.30 2.90 4.45 5.50 4.75 5.80 0.25 0.30 3.10 3.75 6.25 7.60 5.05 6.20 6.45 7.35 6.50 5.60z m7.40 -1.60 c0.55 -1.20 1.95 -3.70 3 -5.65 1.05 -1.90 2.75 -5.05 3.80 -7 1.05 -1.90 2.60 -4.75 3.45 -6.25 0.80 -1.50 2.15 -4 3 -5.50 0.80 -1.50 2 -3.70 2.65 -4.90 0.65 -1.15 2.35 -4.30 3.75 -7 1.45 -2.65 2.75 -5.05 2.95 -5.35 0.20 -0.25 1.25 -2.20 2.35 -4.25 1.75 -3.15 36.05 -66.25 40.15 -73.75 0.75 -1.35 2.05 -3.75 2.85 -5.25 0.85 -1.50 2.20 -4 3 -5.50 0.85 -1.50 2.20 -4 3 -5.50 3.05 -5.60 4.80 -8.80 6 -10.95 0.90 -1.65 1.05 -2.30 0.60 -2.85 -0.45 -0.55 -4 5.60 -17.65 30.65 -9.40 17.30 -18.20 33.45 -19.50 35.90 -1.35 2.50 -2.60 4.75 -2.80 5 -0.20 0.30 -1.50 2.70 -2.95 5.35 -1.40 2.70 -3.10 5.85 -3.75 7 -1.20 2.25 -3 5.50 -5.95 10.90 -29.55 54.15 -31 57 -29.40 57 0.20 0 0.85 -0.95 1.45 -2.10z m175.85 -19.90 c0.30 -0.45 -1.10 -2.60 -9.80 -15.25 -7 -10.10 -19.65 -28.55 -24.85 -36.25 -2.35 -3.45 -6.20 -9.05 -8.60 -12.50 -2.40 -3.45 -6 -8.70 -8.05 -11.75 -2.10 -3 -5 -7.30 -6.50 -9.50 -1.55 -2.20 -4.25 -6.15 -6.05 -8.75 -13.15 -19.15 -16.15 -23.55 -20.45 -29.85 -2.65 -3.90 -4.95 -7 -5.15 -6.80 -0.70 0.70 -0.15 1.90 2.75 6.05 2.80 4.05 7.35 10.70 20.20 29.50 2.80 4.05 7.80 11.40 11.20 16.35 3.40 4.95 7.65 11.15 9.45 13.75 1.80 2.60 4.50 6.55 6.05 8.75 1.50 2.20 4.45 6.50 6.50 9.50 2.05 3.05 5.15 7.55 6.90 10 1.70 2.50 5.25 7.65 7.85 11.50 2.60 3.85 6.70 9.80 9.05 13.25 2.40 3.45 5.25 7.65 6.40 9.35 2.15 3.20 2.55 3.55 3.10 2.65z m-232.25 -50.10 c0.75 -1.75 2.75 -6.05 4.45 -9.60 1.70 -3.50 3.05 -6.50 3.05 -6.60 0 -0.05 1.80 -3.90 4 -8.50 2.20 -4.55 4 -8.40 4 -8.45 0 -0.10 1.60 -3.45 3.50 -7.50 1.95 -4.05 3.50 -7.40 3.50 -7.50 0 -0.05 1.50 -3.25 3.30 -7.05 1.80 -3.85 5.50 -11.65 8.20 -17.45 2.70 -5.75 5.95 -12.75 7.25 -15.50 1.30 -2.75 4.65 -9.95 7.50 -16 2.80 -6.05 6.20 -13.25 7.50 -16 1.30 -2.75 4.65 -9.95 7.50 -16 2.80 -6.05 6.20 -13.25 7.50 -16 6.65 -14.10 6.75 -14.35 5.75 -15 -0.25 -0.15 -1.25 1.35 -2.20 3.35 -0.90 2 -4.20 9.05 -7.30 15.65 -3.10 6.60 -6.45 13.80 -7.50 16 -1.05 2.20 -4.40 9.40 -7.50 16 -3.10 6.60 -6.45 13.80 -7.50 16 -1.05 2.20 -4.40 9.40 -7.50 16 -3.10 6.60 -6.45 13.80 -7.50 16 -2.50 5.30 -12.65 26.95 -15 32 -4.50 9.60 -8.10 17.25 -15.20 32.40 -2.30 4.95 -2.60 5.90 -1.95 6.50 0.55 0.60 0.70 0.45 2.15 -2.75z m129.95 -100.05 c-3.65 -5.25 -7.90 -11.40 -9.40 -13.60 -1.50 -2.20 -5.05 -7.35 -7.90 -11.50 -2.80 -4.10 -8.10 -11.85 -11.75 -17.20 -3.65 -5.35 -8.95 -13.10 -11.80 -17.25 -5.95 -8.70 -5.95 -8.75 -6.40 -7.65 -0.20 0.55 0.50 1.95 1.90 3.95 1.25 1.75 4.25 6.10 6.70 9.65 2.40 3.60 5.80 8.55 7.55 11 1.70 2.50 5.25 7.65 7.85 11.50 2.60 3.85 5.60 8.25 6.65 9.75 1.10 1.50 3.95 5.70 6.40 9.25 16.35 24.05 16.45 24.20 16.65 22.85 0.10 -0.75 -1.85 -4 -6.45 -10.75z"/>
    </g>
</svg>