<!-- <svg aria-hidden="true" xmlns="http://www.w3.org/2000/svg" fill="none" viewBox="0 0 20 20">
    <path stroke="currentColor" stroke-linecap="round" stroke-linejoin="round" stroke-width="2" d="M15 17v1a.97.97 0 0 1-.933 1H1.933A.97.97 0 0 1 1 18V5.828a2 2 0 0 1 .586-1.414l2.828-2.828A2 2 0 0 1 5.828 1h8.239A.97.97 0 0 1 15 2M6 1v4a1 1 0 0 1-1 1H1m13.14.772 2.745 2.746M18.1 5.612a2.086 2.086 0 0 1 0 2.953l-6.65 6.646-3.693.739.739-3.692 6.646-6.646a2.087 2.087 0 0 1 2.958 0Z"/>
</svg> -->

<svg xmlns="http://www.w3.org/2000/svg" height="24px" viewBox="0 -960 960 960" width="24px" fill="currentColor">
    <path d="M310.77-310.77h40.92l236.93-234.92-42.93-42.93-234.92 234.93v42.92Zm299.69-256.77 32.77-33.23q6-6 6-14t-6-14l-14.46-14.46q-6-6-14-6t-14 6l-33.23 32.77 42.92 42.92ZM224.62-160q-26.85 0-45.74-18.88Q160-197.77 160-224.62v-510.76q0-26.85 18.88-45.74Q197.77-800 224.62-800h188q-5.47-30.62 14.65-55.31Q447.38-880 480-880q33.38 0 53.5 24.69 20.12 24.69 13.88 55.31h188q26.85 0 45.74 18.88Q800-762.23 800-735.38v510.76q0 26.85-18.88 45.74Q762.23-160 735.38-160H224.62Zm0-40h510.76q9.24 0 16.93-7.69 7.69-7.69 7.69-16.93v-510.76q0-9.24-7.69-16.93-7.69-7.69-16.93-7.69H224.62q-9.24 0-16.93 7.69-7.69 7.69-7.69 16.93v510.76q0 9.24 7.69 16.93 7.69 7.69 16.93 7.69ZM480-782.31q13 0 21.5-8.5t8.5-21.5q0-13-8.5-21.5t-21.5-8.5q-13 0-21.5 8.5t-8.5 21.5q0 13 8.5 21.5t21.5 8.5ZM200-200v-560 560Z"/>
</svg>