<!-- <svg aria-hidden="true" xmlns="http://www.w3.org/2000/svg" fill="currentColor" viewBox="0 0 19 19">
    <path d="M1 19h13a1 1 0 0 0 1-1V9a1 1 0 0 0-1-1H0v10a1 1 0 0 0 1 1ZM0 6h7.443l-1.2-1.6a1 1 0 0 0-.8-.4H1a1 1 0 0 0-1 1v1Z"/>
    <path d="M17 4h-4.557l-2.4-3.2a2.009 2.009 0 0 0-1.6-.8H4a2 2 0 0 0-2 2h3.443a3.014 3.014 0 0 1 2.4 1.2l2.1 2.8H14a3 3 0 0 1 3 3v8a2 2 0 0 0 2-2V6a2 2 0 0 0-2-2Z"/>
</svg> -->
<svg xmlns="http://www.w3.org/2000/svg" height="24px" viewBox="0 -960 960 960" width="24px" fill="currentColor"><path d="M144.62-169.23q-26.85 0-45.74-18.89Q80-207 80-233.85v-443.07h40v443.07q0 10.77 6.92 17.7 6.93 6.92 17.7 6.92H760v40H144.62Zm120-120q-26.85 0-45.74-18.89Q200-327 200-353.85v-421.53q0-26.85 18.88-45.74Q237.77-840 264.62-840h198.46l80 80h272.3q26.85 0 45.74 18.88Q880-722.23 880-695.38v341.53q0 26.85-18.88 45.73-18.89 18.89-45.74 18.89H264.62Zm0-40h550.76q10.77 0 17.7-6.92 6.92-6.93 6.92-17.7v-341.53q0-10.77-6.92-17.7-6.93-6.92-17.7-6.92H527l-80-80H264.62q-10.77 0-17.7 6.92-6.92 6.93-6.92 17.7v421.53q0 10.77 6.92 17.7 6.93 6.92 17.7 6.92Zm-24.62 0V-800v470.77Z"/></svg>
