<!-- <svg aria-hidden="true" xmlns="http://www.w3.org/2000/svg" fill="none" viewBox="0 0 20 20">
    <path stroke="currentColor" stroke-linecap="round" stroke-linejoin="round" stroke-width="2" d="M12.079 4.839a3 3 0 0 0-4.255.1M11 18h1.083A3.916 3.916 0 0 0 16 14.083V7A6 6 0 1 0 4 7v7m7 4v-1a1 1 0 0 0-1-1H9a1 1 0 0 0-1 1v1a1 1 0 0 0 1 1h1a1 1 0 0 0 1-1Zm-7-4V8H3a2 2 0 0 0-2 2v2a2 2 0 0 0 2 2h1Zm12-6h1a2 2 0 0 1 2 2v2a2 2 0 0 1-2 2h-1V8Z"/>
</svg> -->



<!-- <svg xmlns="http://www.w3.org/2000/svg" height="24px" viewBox="0 -960 960 960" width="24px" fill="currentColor">
    <path d="M470.77-160v-40h264.61q10 0 17.31-6.15 7.31-6.16 7.31-16.16v-275.54q0-112.38-82.65-187.73-82.66-75.34-197.35-75.34t-197.35 75.34Q200-610.23 200-497.85v227.08h-20q-24.54 0-42.27-16.58Q120-303.92 120-328.46v-75.39q0-17.92 11.65-31.8 11.66-13.89 28.35-22.58l.69-49.15q1.85-62.62 28.35-116 26.5-53.39 69.77-92.93 43.27-39.54 100.54-61.61Q416.62-800 480-800t120.54 22.08q57.15 22.07 100.54 61.5 43.38 39.42 69.77 92.8 26.38 53.39 28.46 116l.69 48.16q15.92 7.46 27.96 20.08Q840-426.77 840-409.08v86.62q0 17.69-12.04 30.31-12.04 12.61-27.96 20.07v49.77q0 26.08-18.88 44.19Q762.23-160 735.38-160H470.77Zm-95.39-258.46q-12.38 0-21.57-8.42-9.19-8.43-9.19-20.81 0-12.39 9.19-21.19 9.19-8.81 21.57-8.81 12.39 0 21.58 8.81 9.19 8.8 9.19 21.19 0 12.38-9.19 20.81-9.19 8.42-21.58 8.42Zm209.24 0q-12.39 0-21.58-8.42-9.19-8.43-9.19-20.81 0-12.39 9.19-21.19 9.19-8.81 21.58-8.81 12.38 0 21.57 8.81 9.19 8.8 9.19 21.19 0 12.38-9.19 20.81-9.19 8.42-21.57 8.42ZM268.69-482q-5.46-89.85 57.85-153.15 63.31-63.31 155.46-63.31 77.46 0 137.27 46.5 59.81 46.5 73.04 122.19-79.46-1-147.5-40.54t-104.43-110q-14.46 69.23-60.19 121.35-45.73 52.11-111.5 76.96Z"/>
</svg> -->
<svg xmlns="http://www.w3.org/2000/svg" height="24px" viewBox="0 -960 960 960" width="24px" fill="currentColor">
    <path d="M717.23-120q-101.15 0-207.38-50.65-106.23-50.66-197.39-142.2-91.15-91.53-141.81-197.38Q120-616.08 120-717.23q0-18.33 12-30.55Q144-760 162-760h98.92q16.31 0 28.46 10.27 12.16 10.27 16.47 26.35L325.69-628q2.77 16.77-1 29.31t-13.31 20.54l-87.76 81.84q24.61 44.69 54.42 83.04 29.81 38.35 63.58 72.65 34.84 34.85 75 64.81 40.15 29.96 88.15 56.58l85.54-87.08q9.77-10.54 21.96-13.88 12.19-3.35 26.96-1.35l84.15 17.23q16.31 4 26.47 16.43Q760-275.46 760-259.38V-162q0 18-12.22 30t-30.55 12ZM204.85-533.85l76.77-70.61q3.84-3.08 5-8.46 1.15-5.39-.39-10l-17.77-84.77q-1.54-6.16-5.38-9.23-3.85-3.08-10-3.08H171q-4.62 0-7.69 3.08-3.08 3.07-3.08 7.69 1.15 41 12.85 85.61 11.69 44.62 31.77 89.77Zm338 333.39q40.53 20.08 86.42 29.69 45.88 9.62 79.96 10.31 4.62 0 7.69-3.08 3.08-3.08 3.08-7.69v-80.31q0-6.15-3.08-10-3.07-3.84-9.23-5.38l-74-15.16q-4.61-1.54-8.07-.38-3.47 1.15-7.31 5l-75.46 77Zm-338-333.39Zm338 333.39ZM660.11-480q-74.65 0-127.38-52.62Q480-585.23 480-659.89q0-74.65 52.62-127.38Q585.23-840 659.89-840q74.65 0 127.38 52.62Q840-734.77 840-660.11q0 74.65-52.62 127.38Q734.77-480 660.11-480Zm-15.49-64.62h30.76v-143.07h-30.76v143.07ZM660-732.31q8 0 14-6t6-14q0-8-6-14t-14-6q-8 0-14 6t-6 14q0 8 6 14t14 6Z"/>
</svg>