<!-- <svg aria-hidden="true" xmlns="http://www.w3.org/2000/svg" fill="currentColor" viewBox="0 0 20 20">
    <path d="M19.728 10.686c-2.38 2.256-6.153 3.381-9.875 3.381-3.722 0-7.4-1.126-9.571-3.371L0 10.437V18a2 2 0 0 0 2 2h16a2 2 0 0 0 2-2v-7.6l-.272.286Z"/>
    <path d="m.135 7.847 1.542 1.417c3.6 3.712 12.747 3.7 16.635.01L19.605 7.9A.98.98 0 0 1 20 7.652V6a2 2 0 0 0-2-2h-3V3a3 3 0 0 0-3-3H8a3 3 0 0 0-3 3v1H2a2 2 0 0 0-2 2v1.765c.047.024.092.051.135.082ZM10 10.25a1.25 1.25 0 1 1 0-2.5 1.25 1.25 0 0 1 0 2.5ZM7 3a1 1 0 0 1 1-1h4a1 1 0 0 1 1 1v1H7V3Z"/>
</svg> -->
<svg xmlns="http://www.w3.org/2000/svg" height="24px" viewBox="0 -960 960 960" width="24px" fill="currentColor">
    <path d="M184.62-160q-27.62 0-46.12-18.5Q120-197 120-224.62v-390.76q0-27.62 18.5-46.12Q157-680 184.62-680H360v-55.39q0-27.61 18.5-46.11t46.12-18.5h110.76q27.62 0 46.12 18.5Q600-763 600-735.39V-680h175.38q27.62 0 46.12 18.5Q840-643 840-615.38v390.76q0 27.62-18.5 46.12Q803-160 775.38-160H184.62Zm0-40h590.76q9.24 0 16.93-7.69 7.69-7.69 7.69-16.93v-390.76q0-9.24-7.69-16.93-7.69-7.69-16.93-7.69H184.62q-9.24 0-16.93 7.69-7.69 7.69-7.69 16.93v390.76q0 9.24 7.69 16.93 7.69 7.69 16.93 7.69ZM400-680h160v-55.39q0-9.23-7.69-16.92-7.69-7.69-16.93-7.69H424.62q-9.24 0-16.93 7.69-7.69 7.69-7.69 16.92V-680ZM160-200v-440 440Z"/>
</svg>