<!-- <?xml version="1.0" encoding="UTF-8"?>
<svg xmlns="http://www.w3.org/2000/svg" xmlns:xlink="http://www.w3.org/1999/xlink" width="196px" height="196px" viewBox="0 0 196 196" version="1.1">
<g id="surface1">
<path style=" stroke:none;fill-rule:nonzero;fill:rgb(0%,0%,0%);fill-opacity:1;" d="M 176.730469 94.820312 C 176.640625 90.835938 176.226562 86.898438 175.53125 83.011719 L 185.015625 81.15625 L 184.679688 79.515625 C 183.652344 74.4375 182.160156 69.515625 180.265625 64.75 L 189.199219 61.109375 L 188.546875 59.5625 C 183.597656 47.808594 176.449219 37.277344 167.296875 28.265625 L 166.09375 27.082031 L 152.46875 40.496094 C 149.550781 37.742188 146.433594 35.242188 143.144531 32.980469 L 148.511719 25.070312 L 147.097656 24.144531 C 142.730469 21.265625 138.140625 18.820312 133.375 16.769531 L 137.074219 7.980469 L 135.507812 7.339844 C 123.589844 2.46875 110.972656 0 98 0 L 96.300781 0 L 96.300781 18.972656 C 92.257812 19.058594 88.257812 19.464844 84.3125 20.152344 L 82.425781 10.820312 L 80.757812 11.144531 C 75.597656 12.15625 70.597656 13.625 65.761719 15.492188 L 62.0625 6.691406 L 60.492188 7.335938 C 48.546875 12.210938 37.851562 19.253906 28.703125 28.261719 L 27.503906 29.445312 L 41.125 42.859375 C 38.328125 45.730469 35.792969 48.804688 33.492188 52.039062 L 25.457031 46.757812 L 24.515625 48.144531 C 21.59375 52.445312 19.113281 56.964844 17.03125 61.65625 L 8.097656 58.015625 L 7.445312 59.558594 C 2.507812 71.296875 0 83.722656 0 96.492188 L 0 98.164062 L 19.269531 98.160156 C 19.359375 102.144531 19.769531 106.082031 20.46875 109.96875 L 10.984375 111.824219 L 11.320312 113.46875 C 12.347656 118.542969 13.839844 123.46875 15.734375 128.230469 L 6.796875 131.875 L 7.449219 133.421875 C 12.40625 145.183594 19.558594 155.714844 28.703125 164.71875 L 29.90625 165.902344 L 43.53125 152.484375 C 46.449219 155.242188 49.566406 157.738281 52.855469 160.003906 L 47.484375 167.914062 L 48.898438 168.84375 C 53.265625 171.71875 57.855469 174.164062 62.621094 176.214844 L 58.921875 185.007812 L 60.492188 185.644531 C 72.414062 190.511719 85.03125 192.984375 98 192.984375 L 99.699219 192.984375 L 99.699219 174.007812 C 103.742188 173.917969 107.742188 173.515625 111.6875 172.828125 L 113.574219 182.164062 L 115.242188 181.839844 C 120.394531 180.824219 125.398438 179.355469 130.234375 177.492188 L 133.933594 186.289062 L 135.503906 185.648438 C 147.449219 180.769531 158.144531 173.726562 167.296875 164.71875 L 168.496094 163.535156 L 154.871094 150.121094 C 157.667969 147.246094 160.207031 144.175781 162.507812 140.941406 L 170.539062 146.226562 L 171.484375 144.835938 C 174.402344 140.535156 176.886719 136.015625 178.964844 131.324219 L 187.898438 134.96875 L 188.546875 133.421875 C 193.492188 121.679688 196 109.253906 196 96.492188 L 196 94.820312 Z M 181 78.53125 L 174.867188 79.734375 C 174 75.878906 172.847656 72.085938 171.378906 68.375 L 177.128906 66.03125 C 178.738281 70.078125 180.042969 74.246094 181 78.53125 Z M 163.699219 94.820312 L 157.449219 94.820312 C 157.367188 92.113281 157.109375 89.40625 156.644531 86.710938 L 162.753906 85.515625 C 163.292969 88.578125 163.617188 91.683594 163.699219 94.820312 Z M 180.992188 114.453125 C 180.035156 118.742188 178.734375 122.910156 177.128906 126.953125 L 168.257812 123.335938 L 167.609375 124.878906 C 165.921875 128.886719 163.890625 132.691406 161.5625 136.296875 L 156.378906 132.886719 C 158.484375 129.613281 160.320312 126.164062 161.847656 122.53125 L 162.496094 120.984375 L 144.683594 113.722656 C 146.582031 108.730469 147.636719 103.511719 147.816406 98.164062 L 154.046875 98.164062 C 153.953125 101.210938 153.617188 104.246094 153.007812 107.269531 L 152.675781 108.90625 Z M 152.671875 84.078125 L 153.003906 85.71875 C 153.613281 88.742188 153.949219 91.78125 154.046875 94.820312 L 144.449219 94.820312 L 144.449219 96.492188 C 144.449219 102.542969 143.265625 108.429688 140.921875 113.996094 L 140.269531 115.539062 L 158.039062 122.789062 C 156.742188 125.660156 155.242188 128.40625 153.558594 131.035156 L 145.570312 125.78125 L 144.628906 127.171875 C 142.890625 129.734375 140.949219 132.117188 138.832031 134.332031 L 132.042969 127.648438 L 130.84375 128.832031 C 126.507812 133.101562 121.4375 136.441406 115.773438 138.753906 L 114.207031 139.394531 L 121.570312 156.886719 C 118.59375 158.015625 115.558594 158.910156 112.480469 159.59375 L 110.605469 150.324219 L 108.9375 150.648438 C 105.898438 151.246094 102.800781 151.574219 99.695312 151.667969 L 99.695312 142.230469 L 98 142.230469 C 91.855469 142.230469 85.871094 141.0625 80.222656 138.753906 L 78.652344 138.113281 L 71.289062 155.609375 C 68.378906 154.332031 65.585938 152.851562 62.917969 151.199219 L 68.253906 143.335938 L 66.84375 142.40625 C 64.238281 140.691406 61.816406 138.78125 59.566406 136.699219 L 66.351562 130.015625 L 65.152344 128.832031 C 60.8125 124.558594 57.421875 119.566406 55.074219 113.996094 L 54.425781 112.453125 L 36.660156 119.699219 C 35.515625 116.773438 34.605469 113.78125 33.910156 110.75 L 43.324219 108.90625 L 42.992188 107.265625 C 42.382812 104.246094 42.046875 101.207031 41.949219 98.164062 L 51.546875 98.164062 L 51.546875 96.492188 C 51.546875 90.4375 52.734375 84.546875 55.074219 78.988281 L 55.726562 77.441406 L 37.960938 70.195312 C 39.253906 67.324219 40.757812 64.578125 42.4375 61.949219 L 50.425781 67.203125 L 51.367188 65.8125 C 53.105469 63.25 55.050781 60.867188 57.164062 58.652344 L 63.949219 65.335938 L 65.152344 64.152344 C 69.492188 59.878906 74.5625 56.539062 80.222656 54.230469 L 81.792969 53.589844 L 74.429688 36.09375 C 77.402344 34.964844 80.441406 34.074219 83.519531 33.386719 L 85.390625 42.660156 L 87.058594 42.332031 C 90.101562 41.734375 93.195312 41.410156 96.300781 41.316406 L 96.300781 50.753906 L 98 50.753906 C 104.144531 50.753906 110.128906 51.921875 115.773438 54.230469 L 117.34375 54.871094 L 124.703125 37.375 C 127.621094 38.652344 130.410156 40.128906 133.078125 41.785156 L 127.742188 49.648438 L 129.15625 50.578125 C 131.757812 52.292969 134.179688 54.203125 136.429688 56.285156 L 129.644531 62.96875 L 130.84375 64.152344 C 135.179688 68.417969 138.570312 73.410156 140.921875 78.988281 L 141.570312 80.53125 L 159.339844 73.285156 C 160.484375 76.210938 161.394531 79.203125 162.089844 82.234375 Z M 151.671875 133.816406 C 149.855469 136.359375 147.851562 138.777344 145.65625 141.050781 L 141.214844 136.679688 C 143.101562 134.707031 144.886719 132.636719 146.492188 130.410156 Z M 143.785156 166.972656 C 140.035156 169.339844 136.117188 171.378906 132.078125 173.121094 L 128.402344 164.386719 L 126.832031 165.027344 C 122.769531 166.683594 118.601562 167.957031 114.359375 168.890625 L 113.144531 162.871094 C 116.988281 162.019531 120.765625 160.859375 124.449219 159.355469 L 126.015625 158.71875 L 118.636719 141.175781 C 123.574219 138.96875 128.066406 136.007812 132.027344 132.363281 L 136.433594 136.699219 C 134.179688 138.785156 131.761719 140.699219 129.164062 142.410156 L 127.75 143.339844 Z M 69.167969 165.027344 C 65.097656 163.367188 61.234375 161.367188 57.570312 159.078125 L 61.035156 153.972656 C 64.363281 156.042969 67.863281 157.855469 71.550781 159.355469 L 73.121094 159.996094 L 80.5 142.457031 C 85.566406 144.332031 90.867188 145.367188 96.300781 145.546875 L 96.296875 151.667969 C 93.191406 151.578125 90.09375 151.25 87.050781 150.65625 L 85.386719 150.332031 L 79.757812 178.207031 C 75.398438 177.265625 71.164062 175.980469 67.058594 174.40625 L 70.734375 165.667969 Z M 99.695312 155.019531 C 102.460938 154.941406 105.214844 154.6875 107.933594 154.230469 L 109.148438 160.25 C 106.035156 160.777344 102.882812 161.097656 99.695312 161.175781 Z M 28.390625 124.878906 C 26.707031 120.875 25.414062 116.773438 24.46875 112.597656 L 30.582031 111.398438 C 31.445312 115.183594 32.625 118.902344 34.148438 122.53125 L 34.800781 124.074219 L 52.613281 116.808594 C 54.859375 121.667969 57.863281 126.089844 61.570312 129.996094 L 57.160156 134.332031 C 55.042969 132.113281 53.097656 129.730469 51.363281 127.171875 L 50.417969 125.78125 L 26.414062 141.574219 C 24.011719 137.878906 21.941406 134.023438 20.167969 130.042969 L 29.042969 126.421875 Z M 57.1875 139.042969 C 59.1875 140.898438 61.289062 142.65625 63.554688 144.238281 L 60.09375 149.339844 C 57.511719 147.546875 55.054688 145.574219 52.746094 143.414062 Z M 32.304688 98.164062 L 38.550781 98.164062 C 38.628906 100.871094 38.890625 103.578125 39.351562 106.269531 L 33.246094 107.46875 C 32.707031 104.402344 32.382812 101.300781 32.304688 98.164062 Z M 15.011719 78.53125 C 15.964844 74.242188 17.265625 70.074219 18.871094 66.03125 L 27.742188 69.644531 L 28.390625 68.101562 C 30.078125 64.097656 32.109375 60.292969 34.4375 56.683594 L 39.621094 60.09375 C 37.515625 63.371094 35.679688 66.820312 34.152344 70.453125 L 33.503906 71.996094 L 51.316406 79.261719 C 49.414062 84.25 48.363281 89.46875 48.183594 94.820312 L 41.953125 94.820312 C 42.046875 91.773438 42.382812 88.738281 42.988281 85.714844 L 43.320312 84.078125 Z M 44.324219 59.167969 C 46.144531 56.625 48.144531 54.207031 50.339844 51.933594 L 54.785156 56.304688 C 52.898438 58.277344 51.113281 60.347656 49.507812 62.574219 Z M 52.214844 26.011719 C 55.96875 23.648438 59.882812 21.605469 63.921875 19.859375 L 67.59375 28.597656 L 69.164062 27.957031 C 73.226562 26.296875 77.398438 25.023438 81.636719 24.089844 L 82.855469 30.113281 C 79.011719 30.960938 75.234375 32.121094 71.550781 33.625 L 69.980469 34.265625 L 77.363281 51.804688 C 72.425781 54.011719 67.933594 56.972656 63.96875 60.621094 L 59.5625 56.285156 C 61.816406 54.195312 64.234375 52.285156 66.832031 50.574219 L 68.246094 49.644531 Z M 126.832031 27.957031 C 130.902344 29.617188 134.765625 31.613281 138.429688 33.90625 L 134.964844 39.007812 C 131.636719 36.9375 128.132812 35.128906 124.445312 33.625 L 122.875 32.984375 L 115.496094 50.527344 C 110.429688 48.652344 105.128906 47.617188 99.699219 47.4375 L 99.699219 41.316406 C 102.804688 41.40625 105.902344 41.734375 108.945312 42.328125 L 110.609375 42.652344 L 116.242188 14.777344 C 120.601562 15.71875 124.832031 17 128.941406 18.578125 L 125.265625 27.316406 Z M 96.300781 37.964844 C 93.539062 38.042969 90.785156 38.296875 88.066406 38.75 L 86.851562 32.734375 C 89.964844 32.203125 93.117188 31.886719 96.300781 31.804688 Z M 138.808594 53.941406 C 136.808594 52.085938 134.707031 50.328125 132.441406 48.746094 L 135.90625 43.640625 C 138.488281 45.4375 140.945312 47.40625 143.253906 49.566406 Z M 161.847656 70.453125 L 161.199219 68.90625 L 143.382812 76.171875 C 141.136719 71.308594 138.132812 66.886719 134.425781 62.988281 L 138.832031 58.652344 C 140.953125 60.867188 142.894531 63.25 144.632812 65.808594 L 145.574219 67.199219 L 169.578125 51.410156 C 171.980469 55.109375 174.054688 58.960938 175.824219 62.9375 L 166.957031 66.554688 L 167.609375 68.097656 C 169.289062 72.101562 170.582031 76.207031 171.527344 80.382812 L 165.417969 81.578125 C 164.550781 77.800781 163.375 74.078125 161.847656 70.453125 Z M 151.277344 44.027344 L 152.480469 45.210938 L 166.082031 31.820312 C 173.957031 39.851562 180.226562 49.082031 184.746094 59.300781 L 178.964844 61.660156 C 176.882812 56.976562 174.398438 52.457031 171.476562 48.152344 L 170.535156 46.761719 L 146.496094 62.570312 C 144.890625 60.34375 143.109375 58.273438 141.214844 56.304688 L 148.074219 49.550781 L 146.875 48.367188 C 144.058594 45.59375 141.019531 43.101562 137.792969 40.863281 L 141.253906 35.757812 C 144.816406 38.222656 148.171875 40.96875 151.277344 44.027344 Z M 143.789062 26.003906 L 140.316406 31.121094 C 136.941406 29.003906 133.402344 27.125 129.695312 25.523438 L 132.078125 19.855469 C 136.125 21.597656 140.042969 23.640625 143.789062 26.003906 Z M 98 22.296875 L 99.699219 22.296875 L 99.699219 3.359375 C 111.054688 3.558594 122.117188 5.71875 132.628906 9.800781 L 130.238281 15.488281 C 125.40625 13.632812 120.402344 12.164062 115.238281 11.152344 L 113.570312 10.828125 L 107.929688 38.746094 C 105.214844 38.292969 102.457031 38.039062 99.695312 37.960938 L 99.695312 28.441406 L 98 28.441406 C 94.015625 28.441406 90.074219 28.796875 86.1875 29.457031 L 84.972656 23.4375 C 89.253906 22.695312 93.601562 22.300781 98 22.296875 Z M 79.757812 14.769531 L 80.976562 20.804688 C 77.066406 21.660156 73.210938 22.792969 69.441406 24.242188 L 67.0625 18.578125 C 71.171875 16.996094 75.40625 15.710938 79.757812 14.769531 Z M 44.71875 44.03125 L 45.917969 42.847656 L 32.316406 29.457031 C 40.464844 21.703125 49.84375 15.535156 60.230469 11.078125 L 62.625 16.773438 C 57.867188 18.820312 53.277344 21.265625 48.902344 24.148438 L 47.492188 25.074219 L 63.550781 48.742188 C 61.285156 50.320312 59.183594 52.082031 57.183594 53.941406 L 50.324219 47.1875 L 49.125 48.371094 C 46.304688 51.144531 43.773438 54.136719 41.507812 57.3125 L 36.320312 53.902344 C 38.820312 50.394531 41.609375 47.089844 44.71875 44.03125 Z M 26.410156 51.40625 L 31.605469 54.824219 C 29.457031 58.148438 27.546875 61.632812 25.917969 65.285156 L 20.167969 62.9375 C 21.9375 58.953125 24.007812 55.09375 26.410156 51.40625 Z M 22.648438 96.488281 L 22.648438 94.816406 L 3.414062 94.820312 C 3.609375 83.640625 5.808594 72.746094 9.953125 62.394531 L 15.730469 64.75 C 13.84375 69.507812 12.359375 74.433594 11.328125 79.515625 L 10.996094 81.15625 L 39.347656 86.710938 C 38.886719 89.40625 38.628906 92.109375 38.550781 94.820312 L 28.882812 94.820312 L 28.882812 96.492188 C 28.886719 100.417969 29.246094 104.296875 29.917969 108.121094 L 23.804688 109.316406 C 23.054688 105.101562 22.652344 100.820312 22.648438 96.488281 Z M 15 114.453125 L 21.132812 113.25 C 21.996094 117.101562 23.152344 120.894531 24.621094 124.605469 L 18.867188 126.953125 C 17.261719 122.90625 15.957031 118.738281 15 114.453125 Z M 44.71875 148.949219 L 43.519531 147.765625 L 29.914062 161.164062 C 22.046875 153.136719 15.777344 143.90625 11.25 133.679688 L 17.035156 131.324219 C 19.117188 136.007812 21.597656 140.527344 24.519531 144.832031 L 25.464844 146.222656 L 49.5 130.410156 C 51.105469 132.636719 52.890625 134.710938 54.78125 136.679688 L 47.925781 143.429688 L 49.128906 144.613281 C 51.941406 147.386719 54.980469 149.882812 58.207031 152.117188 L 54.742188 157.21875 C 51.183594 154.757812 47.824219 152.011719 44.71875 148.949219 Z M 52.207031 166.980469 L 55.679688 161.859375 C 59.058594 163.976562 62.597656 165.855469 66.304688 167.460938 L 63.921875 173.125 C 59.871094 171.382812 55.953125 169.34375 52.207031 166.980469 Z M 98 170.679688 L 96.300781 170.679688 L 96.300781 189.625 C 84.949219 189.425781 73.886719 187.265625 63.367188 183.183594 L 65.757812 177.492188 C 70.59375 179.355469 75.597656 180.820312 80.757812 181.832031 L 82.425781 182.15625 L 88.066406 154.238281 C 90.785156 154.691406 93.539062 154.945312 96.300781 155.023438 L 96.300781 164.546875 L 98 164.546875 C 101.984375 164.542969 105.929688 164.1875 109.8125 163.527344 L 111.03125 169.542969 C 106.746094 170.285156 102.398438 170.679688 98 170.679688 Z M 116.242188 178.214844 L 115.023438 172.175781 C 118.933594 171.320312 122.785156 170.1875 126.554688 168.742188 L 128.9375 174.402344 C 124.828125 175.988281 120.59375 177.269531 116.242188 178.214844 Z M 151.28125 148.949219 L 150.082031 150.132812 L 163.683594 163.527344 C 155.527344 171.277344 146.15625 177.449219 135.769531 181.902344 L 133.375 176.210938 C 138.132812 174.160156 142.722656 171.714844 147.097656 168.835938 L 148.511719 167.90625 L 132.445312 144.242188 C 134.710938 142.664062 136.8125 140.90625 138.8125 139.042969 L 145.671875 145.796875 L 146.871094 144.613281 C 149.691406 141.84375 152.222656 138.847656 154.496094 135.671875 L 159.679688 139.082031 C 157.179688 142.585938 154.390625 145.890625 151.28125 148.949219 Z M 169.589844 141.578125 L 164.394531 138.160156 C 166.542969 134.835938 168.449219 131.347656 170.082031 127.699219 L 175.832031 130.046875 C 174.0625 134.03125 171.992188 137.886719 169.589844 141.578125 Z M 186.046875 130.589844 L 180.265625 128.234375 C 182.15625 123.476562 183.644531 118.550781 184.671875 113.46875 L 185.003906 111.828125 L 156.648438 106.273438 C 157.113281 103.578125 157.375 100.875 157.449219 98.164062 L 167.117188 98.164062 L 167.117188 96.492188 C 167.117188 92.566406 166.757812 88.683594 166.082031 84.863281 L 172.195312 83.667969 C 172.945312 87.878906 173.347656 92.160156 173.351562 96.492188 L 173.351562 98.164062 L 192.589844 98.164062 C 192.390625 109.335938 190.191406 120.230469 186.046875 130.589844 Z M 186.046875 130.589844 "/>
</g>
</svg> -->
<svg version="1.0" xmlns="http://www.w3.org/2000/svg" viewBox="280 200 650 650" preserveAspectRatio="xMidYMid meet">
    <g fill="">
    <path d="M531.70 831.55 c-0.10 -0.10 -0.20 -17.75 -0.20 -39.15 l0 -38.90 8.25 0 c7.10 0 8.25 0.10 8.25 0.75 0 0.65 0.20 0.70 1.15 0.20 1.95 -1.10 11.95 -1.20 15.65 -0.20 3.70 1 6.30 3.40 7.20 6.75 0.70 2.55 0.75 44.55 0.05 46.90 -0.80 2.75 -2.40 4.85 -4.65 6.10 -2 1.15 -2.65 1.25 -9.40 1.25 -4 0 -7.75 -0.20 -8.35 -0.40 l-1.15 -0.40 -0.10 8.60 -0.15 8.65 -8.15 0.05 c-4.50 0 -8.30 -0.10 -8.40 -0.20z m22.95 -30.20 c0.80 -0.55 0.90 -2.05 0.90 -16.75 0 -8.90 -0.15 -16.35 -0.30 -16.60 -0.45 -0.70 -5.45 -0.60 -6.15 0.10 -0.65 0.65 -0.90 31.70 -0.20 32.70 0.75 1.15 4.45 1.55 5.75 0.55z"/>
    <path d="M442 814.70 c-2.90 -1 -5.25 -3.30 -6.35 -6.15 -0.80 -2.10 -0.90 -4.85 -0.90 -32.05 0 -33.20 0 -33.05 3.25 -36.40 2.75 -2.75 4.45 -3.15 15.55 -3.45 17.70 -0.50 22.50 1.05 24.50 7.95 0.70 2.45 0.65 60.80 -0.05 63.40 -0.85 3.20 -3.45 5.70 -6.90 6.70 -4.10 1.15 -25.75 1.15 -29.10 0z m18.75 -13.40 c0.95 -0.70 1 -1.65 1 -25.25 0 -21.30 -0.10 -24.65 -0.75 -25.05 -0.90 -0.60 -7.50 -0.65 -8.40 -0.05 -0.50 0.30 -0.65 5.30 -0.75 24.20 -0.05 13.10 0 24.30 0.15 24.95 0.25 1.05 0.65 1.20 3.75 1.45 1.95 0.15 3.65 0.30 3.80 0.35 0.15 0.05 0.70 -0.20 1.20 -0.60z"/>
    <path d="M492.60 784.65 l0.15 -30.90 8.15 -0.15 8.10 -0.10 0 1.20 0 1.25 1.65 -0.95 c0.95 -0.55 3.50 -1.25 5.75 -1.60 5.75 -0.80 5.65 -0.95 5.50 7.80 l-0.15 7.05 -3 0.05 c-4.90 0.05 -6.55 0.55 -7.85 2.35 -1.15 1.60 -1.15 1.70 -1.40 23.10 l-0.25 21.50 -8.40 0.15 -8.35 0.10 0.10 -30.85z"/>
    <path d="M585.60 773.90 l0.15 -41.60 8.25 0 8.25 0 0.15 11.15 c0.10 10.35 0.20 11.10 1 10.80 0.45 -0.20 3.40 -0.50 6.50 -0.65 8.85 -0.35 13.05 1.15 15.45 5.55 1 1.75 1.05 2.85 1.25 38 l0.15 18.35 -8.35 0 -8.40 0 -0.05 -1.35 c0 -0.80 -0.10 -11.35 -0.20 -23.55 -0.10 -12.15 -0.35 -22.35 -0.50 -22.60 -0.50 -0.80 -5.55 -0.60 -6.20 0.20 -0.45 0.50 -0.60 7.10 -0.70 23.90 l-0.10 23.15 -8.40 0.15 -8.35 0.10 0.10 -41.60z"/>
    <path d="M641.65 784.65 l0.10 -30.90 8.25 -0.15 8.25 -0.10 0 31 0 31 -8.35 0 -8.40 0 0.15 -30.85z"/>
    <path d="M678.65 814.60 c-2.35 -0.95 -4.45 -2.75 -5.40 -4.60 -1.45 -2.80 -1.80 -9.10 -1.65 -28.25 0.15 -13.10 0.40 -19.60 0.85 -20.85 0.80 -2.50 2.75 -4.70 5.25 -6.05 1.90 -1 2.90 -1.10 13 -1.25 13.25 -0.25 16.20 0.30 19 3.40 2.35 2.60 2.80 4.60 2.80 12.65 l0 6.85 -8 0 -8 0 0 -3.35 c0 -5.60 -0.05 -5.65 -4 -5.65 -2.65 0 -3.45 0.20 -3.70 0.80 -0.45 1.15 -0.35 31.85 0.10 32.55 0.40 0.60 6.35 1.05 6.90 0.50 0.15 -0.15 0.45 -2.20 0.55 -4.55 l0.30 -4.30 7.90 0 7.95 0 0 7.65 c0 7.50 -0.05 7.65 -1.50 10.15 -1.10 1.95 -2.05 2.90 -3.85 3.75 -2.30 1.15 -2.90 1.20 -14.40 1.30 -10.45 0.10 -12.25 0 -14.10 -0.75z"/>
    <path d="M732.40 814.70 c-3.30 -1 -5.60 -3.35 -6.60 -6.65 -0.70 -2.30 -0.80 -5.90 -0.80 -23.55 0 -23.40 0.20 -24.90 3.25 -27.80 2.80 -2.60 6.05 -3.20 17.80 -3.20 14 0 16.55 0.75 19.20 5.60 1.30 2.35 1.45 3.20 1.55 7.90 0.05 2.90 0.25 8.20 0.45 11.85 0.20 3.60 0.15 7.60 0 8.85 l-0.35 2.30 -12.70 0 -12.70 0 0 5.40 c0 2.95 0.20 5.65 0.45 6.05 0.30 0.45 1.60 0.80 3.40 0.95 4.05 0.25 4.80 -0.40 5.15 -4.50 l0.25 -3.15 7 -0.15 c10.05 -0.20 9.30 -0.70 8.95 6.05 -0.40 7.15 -0.85 8.95 -3 11.30 -2.70 3.05 -5.40 3.55 -18.25 3.50 -7.80 0 -11.35 -0.20 -13.05 -0.75z m18.10 -41.70 c0 -6.40 -0.10 -6.50 -4.95 -6.50 -3.85 0 -4.05 0.40 -4.05 6.95 l0 5.05 4.50 0 4.50 0 0 -5.50z"/>
    <path d="M641.40 740.15 c-0.15 -3.80 -0.15 -7.15 -0.05 -7.50 0.20 -0.50 2.30 -0.65 8.65 -0.65 l8.35 0 0.25 4.90 c0.15 2.65 0.15 6.05 0.05 7.50 l-0.30 2.60 -8.35 0 -8.35 0 -0.25 -6.85z"/>
    <path d="M594.50 646.10 c-0.95 -0.50 -11.85 -6.85 -24.25 -14.10 -12.35 -7.25 -27 -15.80 -32.50 -19 -9.45 -5.50 -10 -5.90 -10.15 -7.40 -0.10 -0.95 0.25 -2.30 0.80 -3.25 0.55 -0.85 1.70 -2.95 2.60 -4.60 1.55 -2.90 3.05 -5.60 6 -11 0.75 -1.35 2.15 -3.95 3.15 -5.75 2.10 -3.90 22.90 -42.10 23.15 -42.55 0.10 -0.20 -0.10 -0.60 -0.50 -0.90 -0.65 -0.55 -0.90 -0.05 -11.20 18.95 -0.70 1.25 -1.60 2.95 -2.10 3.75 -0.45 0.85 -1.95 3.55 -3.25 6 -2.40 4.45 -3.25 6.10 -6.55 12 -0.90 1.65 -2.50 4.60 -3.55 6.50 -11.30 20.95 -10.25 19.25 -12.10 19.25 -1.10 0 -2.95 -0.75 -5.25 -2.05 -1.95 -1.15 -4.20 -2.45 -5.05 -2.95 -0.80 -0.50 -5.90 -3.45 -11.30 -6.55 -5.40 -3.15 -16.60 -9.65 -24.90 -14.45 l-15 -8.75 -0.05 -2 c0 -1.90 1.15 -4.55 11 -25.50 1.45 -3 3.15 -6.75 3.85 -8.25 0.70 -1.50 2.30 -4.90 3.50 -7.50 1.25 -2.60 4.55 -9.70 7.40 -15.75 2.80 -6.05 6.40 -13.65 7.95 -16.95 1.55 -3.25 2.80 -6 2.80 -6.10 0 -0.05 1.80 -3.90 4 -8.50 2.25 -4.65 3.95 -8.70 3.90 -9.10 -0.45 -2.20 -1 -1.20 -14.35 27.40 -1.25 2.60 -3.30 7 -4.55 9.75 -1.30 2.75 -3.05 6.45 -3.85 8.25 -0.85 1.80 -4.15 8.90 -7.40 15.75 -3.20 6.90 -6.50 13.85 -7.25 15.50 -3.40 7.40 -7.55 16.15 -8.35 17.75 -1.65 3.25 -2.30 3.05 -18.70 -6.55 -8.10 -4.75 -17 -9.95 -19.85 -11.60 l-5.10 -2.95 0 -89.85 c0 -49.45 -0.15 -91.30 -0.30 -93 l-0.35 -3.05 1.70 0 c1.05 0 2.05 0.35 2.45 0.90 0.40 0.45 5.80 7.05 12 14.60 6.15 7.55 11.35 13.85 11.50 14 0.15 0.15 2.15 2.60 4.50 5.50 2.30 2.90 4.35 5.35 4.50 5.50 0.15 0.15 2.20 2.60 4.50 5.50 2.35 2.90 4.35 5.35 4.50 5.50 0.15 0.15 1.15 1.40 2.30 2.75 8.10 9.95 19.05 23.35 20.45 25 1.75 2.10 6.25 7.65 8.95 10.95 0.85 1.05 1.80 2.15 2.05 2.50 0.30 0.30 2 2.35 3.75 4.55 5.20 6.35 5.30 6.50 5.70 5.50 0.20 -0.55 -0.40 -1.70 -1.80 -3.45 -1.20 -1.40 -2.25 -2.65 -2.40 -2.80 -0.15 -0.15 -2.20 -2.60 -4.50 -5.45 -6.70 -8.25 -12 -14.70 -12.90 -15.80 -0.45 -0.55 -3.90 -4.70 -7.60 -9.25 -3.70 -4.55 -6.85 -8.35 -7 -8.50 -0.15 -0.15 -2.20 -2.60 -4.50 -5.50 -2.35 -2.90 -4.35 -5.35 -4.50 -5.50 -0.15 -0.15 -3.30 -3.95 -7 -8.50 -3.70 -4.55 -8.45 -10.30 -10.50 -12.80 -6.50 -7.85 -7.60 -9.20 -10.20 -12.40 -7.20 -8.90 -11.05 -13.60 -11.30 -13.80 -0.15 -0.15 -1.10 -1.25 -2.10 -2.50 l-1.80 -2.25 -0.20 -11.35 c-0.05 -6.20 -0.05 -11.40 0.10 -11.50 0.15 -0.15 1.85 -1.15 3.75 -2.25 3.60 -2.05 60 -35 73.50 -42.90 7.20 -4.20 8.55 -5 12.50 -7.25 3.20 -1.80 34.45 -20.15 37.70 -22.10 1.70 -1.05 3.20 -1.90 3.25 -1.90 0.10 0 3.05 -1.70 6.55 -3.75 4.85 -2.80 6.90 -3.75 8.30 -3.75 1.80 0 1.90 0.15 6.50 6.85 4.35 6.45 5.40 8 9.60 14.05 0.90 1.30 3.55 5.10 5.80 8.50 2.30 3.35 4.35 6.10 4.60 6.10 1.05 0 0.25 -1.90 -2.70 -6.15 -6 -8.70 -8.70 -12.60 -12.10 -17.60 -1.90 -2.75 -4.40 -6.40 -5.60 -8.05 -1.75 -2.50 -2.15 -3.50 -2.15 -5.30 0 -1.90 0.15 -2.25 1.40 -2.75 0.75 -0.35 2.30 -1.15 3.40 -1.85 3.05 -1.80 13.70 -8.05 19.50 -11.40 4.90 -2.80 5.15 -2.90 8.70 -2.90 3.45 0 3.85 0.15 8.20 2.60 6.95 3.95 7.30 4.20 7.30 6.15 0 1.60 -0.70 3.40 -4.90 12.25 -14.70 31.25 -15.70 33.60 -15.15 34.15 0.30 0.30 0.65 0.45 0.75 0.30 0.20 -0.20 3.60 -7.30 8.25 -17.20 1.15 -2.45 4.50 -9.65 7.45 -16 l5.40 -11.50 2.20 -0.15 c2.05 -0.10 3 0.30 10.50 4.70 4.55 2.70 10.85 6.35 14 8.20 3.15 1.85 13.20 7.70 22.25 13 9.10 5.30 18.40 10.75 20.75 12.15 2.35 1.35 5.05 2.90 6 3.45 0.95 0.55 2.95 1.70 4.40 2.55 4.25 2.55 4.50 1.90 -9.30 27.25 -6.60 12 -12.90 23.65 -14.10 25.85 -1.15 2.20 -2.30 4.25 -2.50 4.50 -0.20 0.30 -1.50 2.70 -2.95 5.35 -1.40 2.70 -3.10 5.85 -3.75 7 -2.10 3.85 -4.15 7.60 -6.05 11.15 -1.05 1.95 -2.30 4.20 -2.80 5.05 -0.80 1.30 -0.85 1.65 -0.25 2.15 0.55 0.45 3.70 -4.95 17.05 -29.55 9.05 -16.60 16.90 -31.05 17.50 -32.15 2.05 -3.70 4.10 -7.50 6.05 -11 1.05 -1.90 2.75 -5.05 3.75 -7 1.75 -3.25 2 -3.50 3.65 -3.65 1.95 -0.15 -0.85 -1.70 41.30 22.90 10.05 5.85 19.30 11.25 20.55 11.95 1.25 0.70 5.60 3.20 9.60 5.55 l7.30 4.25 0.05 59.55 0 59.55 -15.75 28.90 c-8.65 15.90 -15.75 29.20 -15.75 29.50 0 1.05 0.65 1.25 1.25 0.35 0.35 -0.45 1.45 -2.40 2.50 -4.35 2 -3.75 4.20 -7.75 6 -11 0.60 -1.10 2.60 -4.80 4.50 -8.25 1.85 -3.45 4.05 -7.45 4.80 -8.85 0.80 -1.45 2.10 -3.85 2.90 -5.25 0.75 -1.45 2.10 -3.90 2.90 -5.40 0.85 -1.50 2.05 -3.70 2.65 -4.85 1 -1.90 1.30 -2.15 2.85 -2.15 l1.80 0 -0.35 2.65 c-0.15 1.40 -0.30 21 -0.30 43.45 l0 40.85 -2.75 1.55 c-2 1.15 -3.25 1.50 -4.60 1.40 -1.75 -0.15 -2 -0.45 -7.45 -8.40 -3.10 -4.55 -5.80 -8.45 -6.05 -8.75 -0.25 -0.25 -2.45 -3.50 -4.90 -7.15 -3.40 -5.10 -4.55 -6.45 -4.90 -5.85 -0.30 0.55 0.40 2 2.60 5.15 1.65 2.40 5.40 7.95 8.35 12.35 2.95 4.40 6.15 9 7.05 10.20 1.20 1.55 1.65 2.75 1.65 4.05 l0 1.90 -7.60 4.35 c-4.20 2.40 -8.30 4.80 -9.15 5.25 -14.95 8.60 -38.05 22.30 -38.15 22.60 -0.10 0.20 -0.95 0.40 -1.90 0.40 -3.60 0 -3.15 -1 14.70 -33.70 9 -16.50 16.50 -30.35 16.70 -30.80 0.30 -0.80 -0.35 -2.50 -0.75 -2 -0.10 0.15 -2.60 4.75 -5.60 10.25 -5.75 10.65 -5.95 11.05 -10.60 19.50 -1.65 3.05 -3.85 7.10 -4.90 9 -1.85 3.40 -2.95 5.50 -6.10 11.25 -0.85 1.50 -2.35 4.35 -3.40 6.25 -1.05 1.95 -2.25 4.20 -2.75 5 -0.50 0.85 -1.85 3.30 -3 5.50 -1.15 2.20 -2.50 4.35 -2.95 4.85 -0.65 0.65 -11.45 7.15 -19.55 11.80 -0.95 0.50 -3.65 2.10 -6 3.45 -41.80 24.45 -38.40 22.95 -41.65 18.80 -1 -1.35 -2.30 -3 -2.95 -3.75 -0.65 -0.70 -1.50 -1.75 -1.90 -2.25 -2.15 -2.60 -14.35 -17.55 -15.10 -18.40 -0.45 -0.55 -2.55 -3.15 -4.75 -5.75 -2.15 -2.60 -5.80 -7.10 -8.15 -10 -2.35 -2.90 -4.35 -5.35 -4.50 -5.50 -0.15 -0.15 -2.20 -2.60 -4.50 -5.50 -2.35 -2.90 -4.35 -5.35 -4.50 -5.50 -0.15 -0.15 -3.30 -3.95 -7 -8.50 -3.70 -4.55 -6.95 -8.50 -7.25 -8.80 -0.25 -0.30 -2.30 -2.80 -4.50 -5.60 -3.65 -4.60 -5 -5.75 -5 -4.20 0 0.45 7.25 9.60 12.70 16.05 0.45 0.55 1.15 1.40 1.55 1.90 2 2.40 7.35 9 8.10 9.90 0.45 0.55 2.55 3.15 4.75 5.75 2.15 2.60 6.95 8.45 10.65 13 3.70 4.55 6.85 8.35 7 8.50 0.15 0.15 2.15 2.60 4.50 5.50 2.30 2.90 4.35 5.35 4.50 5.50 0.15 0.15 2.20 2.60 4.50 5.50 2.35 2.90 4.35 5.35 4.50 5.50 0.15 0.15 1.80 2.10 3.65 4.35 2.85 3.55 3.35 4.40 3.35 6.10 l0 1.95 -16.85 9.90 -16.90 9.90 -4.25 0.20 c-3.45 0.10 -4.60 0 -6 -0.80z m-32 -118.10 c0 -0.15 -0.50 -0.80 -1.15 -1.50 -0.60 -0.70 -4.15 -4.95 -7.85 -9.50 -3.70 -4.55 -6.85 -8.35 -7 -8.50 -0.15 -0.15 -2.20 -2.60 -4.50 -5.50 -2.35 -2.90 -4.35 -5.35 -4.50 -5.50 -0.15 -0.15 -3.30 -3.95 -7 -8.50 -6.05 -7.40 -11.50 -14 -16.20 -19.70 -1.20 -1.45 -1.70 -1.75 -1.90 -1.20 -0.30 0.65 1.25 2.95 4.25 6.40 0.60 0.70 3 3.60 5.35 6.50 2.35 2.90 4.35 5.35 4.50 5.50 0.15 0.15 3.30 3.95 7 8.50 3.70 4.55 6.85 8.35 7 8.50 0.15 0.15 2.15 2.60 4.50 5.50 2.30 2.90 4.45 5.50 4.75 5.80 0.25 0.30 3.10 3.75 6.25 7.60 5.05 6.20 6.45 7.35 6.50 5.60z m7.40 -1.60 c0.55 -1.20 1.95 -3.70 3 -5.65 1.05 -1.90 2.75 -5.05 3.80 -7 1.05 -1.90 2.60 -4.75 3.45 -6.25 0.80 -1.50 2.15 -4 3 -5.50 0.80 -1.50 2 -3.70 2.65 -4.90 0.65 -1.15 2.35 -4.30 3.75 -7 1.45 -2.65 2.75 -5.05 2.95 -5.35 0.20 -0.25 1.25 -2.20 2.35 -4.25 1.75 -3.15 36.05 -66.25 40.15 -73.75 0.75 -1.35 2.05 -3.75 2.85 -5.25 0.85 -1.50 2.20 -4 3 -5.50 0.85 -1.50 2.20 -4 3 -5.50 3.05 -5.60 4.80 -8.80 6 -10.95 0.90 -1.65 1.05 -2.30 0.60 -2.85 -0.45 -0.55 -4 5.60 -17.65 30.65 -9.40 17.30 -18.20 33.45 -19.50 35.90 -1.35 2.50 -2.60 4.75 -2.80 5 -0.20 0.30 -1.50 2.70 -2.95 5.35 -1.40 2.70 -3.10 5.85 -3.75 7 -1.20 2.25 -3 5.50 -5.95 10.90 -29.55 54.15 -31 57 -29.40 57 0.20 0 0.85 -0.95 1.45 -2.10z m175.85 -19.90 c0.30 -0.45 -1.10 -2.60 -9.80 -15.25 -7 -10.10 -19.65 -28.55 -24.85 -36.25 -2.35 -3.45 -6.20 -9.05 -8.60 -12.50 -2.40 -3.45 -6 -8.70 -8.05 -11.75 -2.10 -3 -5 -7.30 -6.50 -9.50 -1.55 -2.20 -4.25 -6.15 -6.05 -8.75 -13.15 -19.15 -16.15 -23.55 -20.45 -29.85 -2.65 -3.90 -4.95 -7 -5.15 -6.80 -0.70 0.70 -0.15 1.90 2.75 6.05 2.80 4.05 7.35 10.70 20.20 29.50 2.80 4.05 7.80 11.40 11.20 16.35 3.40 4.95 7.65 11.15 9.45 13.75 1.80 2.60 4.50 6.55 6.05 8.75 1.50 2.20 4.45 6.50 6.50 9.50 2.05 3.05 5.15 7.55 6.90 10 1.70 2.50 5.25 7.65 7.85 11.50 2.60 3.85 6.70 9.80 9.05 13.25 2.40 3.45 5.25 7.65 6.40 9.35 2.15 3.20 2.55 3.55 3.10 2.65z m-232.25 -50.10 c0.75 -1.75 2.75 -6.05 4.45 -9.60 1.70 -3.50 3.05 -6.50 3.05 -6.60 0 -0.05 1.80 -3.90 4 -8.50 2.20 -4.55 4 -8.40 4 -8.45 0 -0.10 1.60 -3.45 3.50 -7.50 1.95 -4.05 3.50 -7.40 3.50 -7.50 0 -0.05 1.50 -3.25 3.30 -7.05 1.80 -3.85 5.50 -11.65 8.20 -17.45 2.70 -5.75 5.95 -12.75 7.25 -15.50 1.30 -2.75 4.65 -9.95 7.50 -16 2.80 -6.05 6.20 -13.25 7.50 -16 1.30 -2.75 4.65 -9.95 7.50 -16 2.80 -6.05 6.20 -13.25 7.50 -16 6.65 -14.10 6.75 -14.35 5.75 -15 -0.25 -0.15 -1.25 1.35 -2.20 3.35 -0.90 2 -4.20 9.05 -7.30 15.65 -3.10 6.60 -6.45 13.80 -7.50 16 -1.05 2.20 -4.40 9.40 -7.50 16 -3.10 6.60 -6.45 13.80 -7.50 16 -1.05 2.20 -4.40 9.40 -7.50 16 -3.10 6.60 -6.45 13.80 -7.50 16 -2.50 5.30 -12.65 26.95 -15 32 -4.50 9.60 -8.10 17.25 -15.20 32.40 -2.30 4.95 -2.60 5.90 -1.95 6.50 0.55 0.60 0.70 0.45 2.15 -2.75z m129.95 -100.05 c-3.65 -5.25 -7.90 -11.40 -9.40 -13.60 -1.50 -2.20 -5.05 -7.35 -7.90 -11.50 -2.80 -4.10 -8.10 -11.85 -11.75 -17.20 -3.65 -5.35 -8.95 -13.10 -11.80 -17.25 -5.95 -8.70 -5.95 -8.75 -6.40 -7.65 -0.20 0.55 0.50 1.95 1.90 3.95 1.25 1.75 4.25 6.10 6.70 9.65 2.40 3.60 5.80 8.55 7.55 11 1.70 2.50 5.25 7.65 7.85 11.50 2.60 3.85 5.60 8.25 6.65 9.75 1.10 1.50 3.95 5.70 6.40 9.25 16.35 24.05 16.45 24.20 16.65 22.85 0.10 -0.75 -1.85 -4 -6.45 -10.75z"/>
    </g>
</svg>
